<svg width="44" height="41" viewBox="0 0 44 41" fill="none" xmlns="http://www.w3.org/2000/svg">
<path d="M22.0594 0C29.8979 5.25775 36.6657 11.3925 41.1751 19.6371C43.0591 23.0817 44.0875 26.7636 43.8391 30.7166C43.6436 33.831 42.0986 36.2498 39.528 37.9375C37.7741 39.0891 35.8084 39.9294 33.9374 40.9088C33.8898 40.824 33.8419 40.7397 33.7943 40.6549C34.7191 39.9122 35.7543 39.2682 36.547 38.408C38.8009 35.962 38.6505 33.0443 37.9404 30.0966C37.0628 26.4546 34.9971 23.4266 32.6444 20.5729C29.828 17.1563 26.4721 14.3118 22.7947 11.8322C22.4753 11.6168 21.8103 11.4813 21.5505 11.6576C15.9952 15.4335 10.9676 19.7366 7.67514 25.6764C6.38824 27.998 5.60131 30.4672 5.52408 33.1538C5.43791 36.1439 6.82032 38.3085 9.1921 39.989C9.48151 40.194 9.79205 40.3707 10.0339 40.7381C9.76888 40.6697 9.49533 40.6229 9.23966 40.5294C6.51832 39.5321 4.05183 38.1558 2.18896 35.8944C-0.307598 32.8636 -0.299875 29.3867 0.410235 25.8231C1.40813 20.8139 4.14166 16.6695 7.32191 12.7712C11.4558 7.70334 16.6098 3.76953 22.0594 0Z" fill="white"/>
<path d="M21.9342 35.6724C19.8164 34.3133 18.0853 32.7291 16.8748 30.6624C16.4793 29.9873 16.1716 29.227 16.0013 28.4671C15.5708 26.5495 16.2252 25.2983 18.0751 24.5916C20.5265 23.655 23.0471 23.5747 25.531 24.4637C27.8101 25.2796 28.5495 26.8901 27.7162 29.2154C26.6858 32.0915 24.4303 33.9411 21.9342 35.6724Z" fill="white"/>
</svg>
