<svg width="28" height="26" viewBox="0 0 28 26" fill="none" xmlns="http://www.w3.org/2000/svg">
<path d="M13.7826 0.182129C18.68 3.46713 22.9084 7.3001 25.7259 12.4513C26.903 14.6034 27.5455 16.9039 27.3904 19.3737C27.2682 21.3195 26.3029 22.8307 24.6968 23.8852C23.601 24.6047 22.3728 25.1297 21.2038 25.7416C21.1741 25.6887 21.1442 25.636 21.1144 25.583C21.6922 25.119 22.339 24.7166 22.8343 24.1792C24.2425 22.6509 24.1485 20.828 23.7049 18.9863C23.1566 16.7108 21.8659 14.8189 20.396 13.0359C18.6363 10.9013 16.5396 9.12404 14.242 7.57482C14.0424 7.44021 13.6269 7.35554 13.4646 7.46568C9.99371 9.82485 6.85246 12.5134 4.79537 16.2245C3.99133 17.6751 3.49966 19.2178 3.4514 20.8964C3.39756 22.7646 4.26129 24.117 5.74316 25.1669C5.92398 25.2951 6.118 25.4055 6.26911 25.635C6.10353 25.5923 5.93261 25.563 5.77287 25.5046C4.0726 24.8815 2.53156 24.0216 1.36765 22.6087C-0.192185 20.7151 -0.18736 18.5427 0.256312 16.3162C0.879788 13.1865 2.58768 10.5971 4.57468 8.16149C7.15747 4.99512 10.3777 2.5373 13.7826 0.182129Z" fill="#333333"/>
<path d="M13.7043 22.4701C12.3812 21.621 11.2995 20.6312 10.5432 19.34C10.2961 18.9181 10.1039 18.4431 9.99747 17.9683C9.72853 16.7703 10.1374 15.9885 11.2932 15.547C12.8248 14.9618 14.3996 14.9116 15.9516 15.467C17.3756 15.9768 17.8375 16.9831 17.3169 18.4359C16.6731 20.2328 15.2639 21.3885 13.7043 22.4701Z" fill="#333333"/>
</svg>
