<svg width="27" height="25" viewBox="0 0 27 25" fill="none" xmlns="http://www.w3.org/2000/svg">
<path d="M13.5 2.25312C17.1045 2.25312 17.532 2.26562 18.9563 2.32604C22.6147 2.48021 24.3236 4.0875 24.4901 7.45C24.5554 8.76771 24.5677 9.16354 24.5677 12.501C24.5677 15.8396 24.5542 16.2344 24.4901 17.5521C24.3225 20.9115 22.6181 22.5219 18.9563 22.676C17.532 22.7365 17.1068 22.749 13.5 22.749C9.8955 22.749 9.468 22.7365 8.04488 22.676C4.37738 22.5208 2.6775 20.9062 2.511 17.551C2.44575 16.2333 2.43225 15.8385 2.43225 12.5C2.43225 9.1625 2.44688 8.76771 2.511 7.44896C2.67863 4.0875 4.383 2.47917 8.04488 2.325C9.46912 2.26562 9.8955 2.25312 13.5 2.25312ZM13.5 0C9.83362 0 9.37463 0.0145833 7.93463 0.075C3.03188 0.283333 0.307125 2.80208 0.082125 7.34583C0.01575 8.68021 0 9.10521 0 12.5C0 15.8948 0.01575 16.3208 0.081 17.6542C0.306 22.1937 3.02625 24.7167 7.9335 24.925C9.37463 24.9854 9.83362 25 13.5 25C17.1664 25 17.6265 24.9854 19.0665 24.925C23.9648 24.7167 26.6963 22.1979 26.9179 17.6542C26.9842 16.3208 27 15.8948 27 12.5C27 9.10521 26.9842 8.68021 26.919 7.34687C26.6985 2.81146 23.9749 0.284375 19.0676 0.0760417C17.6265 0.0145833 17.1664 0 13.5 0V0ZM13.5 6.08125C9.67163 6.08125 6.56775 8.95521 6.56775 12.5C6.56775 16.0448 9.67163 18.9198 13.5 18.9198C17.3284 18.9198 20.4323 16.0458 20.4323 12.5C20.4323 8.95521 17.3284 6.08125 13.5 6.08125ZM13.5 16.6667C11.0149 16.6667 9 14.8021 9 12.5C9 10.199 11.0149 8.33333 13.5 8.33333C15.9851 8.33333 18 10.199 18 12.5C18 14.8021 15.9851 16.6667 13.5 16.6667ZM20.7068 4.32812C19.8113 4.32812 19.0856 5 19.0856 5.82812C19.0856 6.65625 19.8113 7.32812 20.7068 7.32812C21.6011 7.32812 22.3256 6.65625 22.3256 5.82812C22.3256 5 21.6011 4.32812 20.7068 4.32812Z" fill="#333333"/>
</svg>
