<svg width="43" height="42" viewBox="0 0 43 42" fill="none" xmlns="http://www.w3.org/2000/svg">
<path d="M21.1609 4.21071C26.7637 4.21071 27.4282 4.23107 29.6421 4.32951C35.3288 4.58071 37.985 7.19957 38.2438 12.6783C38.3452 14.8253 38.3645 15.4703 38.3645 20.9083C38.3645 26.348 38.3435 26.9912 38.2438 29.1382C37.9833 34.6119 35.334 37.2358 29.6421 37.487C27.4282 37.5855 26.7672 37.6058 21.1609 37.6058C15.5582 37.6058 14.8937 37.5855 12.6816 37.487C6.98088 37.2341 4.33862 34.6034 4.07982 29.1365C3.97839 26.9895 3.95741 26.3463 3.95741 20.9066C3.95741 15.4686 3.98014 14.8253 4.07982 12.6766C4.34037 7.19957 6.98962 4.57901 12.6816 4.32782C14.8954 4.23107 15.5582 4.21071 21.1609 4.21071V4.21071ZM21.1609 0.539551C15.462 0.539551 14.7485 0.563312 12.5102 0.661753C4.88946 1.0012 0.654148 5.10516 0.304412 12.5086C0.201239 14.6827 0.176758 15.3752 0.176758 20.9066C0.176758 26.4379 0.201239 27.1321 0.302663 29.3046C0.652399 36.7012 4.88071 40.8119 12.5085 41.1514C14.7485 41.2498 15.462 41.2736 21.1609 41.2736C26.8599 41.2736 27.5751 41.2498 29.8134 41.1514C37.4272 40.8119 41.673 36.708 42.0175 29.3046C42.1207 27.1321 42.1451 26.4379 42.1451 20.9066C42.1451 15.3752 42.1207 14.6827 42.0192 12.5103C41.6765 5.12043 37.4429 1.0029 29.8152 0.66345C27.5751 0.563312 26.8599 0.539551 21.1609 0.539551V0.539551ZM21.1609 10.4481C15.2102 10.4481 10.3856 15.1308 10.3856 20.9066C10.3856 26.6823 15.2102 31.3667 21.1609 31.3667C27.1117 31.3667 31.9363 26.684 31.9363 20.9066C31.9363 15.1308 27.1117 10.4481 21.1609 10.4481ZM21.1609 27.6956C17.2981 27.6956 14.1662 24.6575 14.1662 20.9066C14.1662 17.1573 17.2981 14.1176 21.1609 14.1176C25.0238 14.1176 28.1557 17.1573 28.1557 20.9066C28.1557 24.6575 25.0238 27.6956 21.1609 27.6956ZM32.363 7.59163C30.9711 7.59163 29.8432 8.68636 29.8432 10.0357C29.8432 11.385 30.9711 12.4797 32.363 12.4797C33.7532 12.4797 34.8794 11.385 34.8794 10.0357C34.8794 8.68636 33.7532 7.59163 32.363 7.59163Z" fill="white"/>
</svg>
