<?xml version="1.0" encoding="utf-8"?>
<!-- Generator: Adobe Illustrator 24.0.1, SVG Export Plug-In . SVG Version: 6.00 Build 0)  -->
<svg version="1.1" id="Layer_1" xmlns="http://www.w3.org/2000/svg" xmlns:xlink="http://www.w3.org/1999/xlink" x="0px" y="0px"
	 viewBox="0 0 32 32" style="enable-background:new 0 0 32 32;" xml:space="preserve">
<style type="text/css">
	.st0{fill:#333333;}
	.st1{fill:none;}
</style>
<title>tiktok</title>
<path class="st0" d="M16.7,0.5c1.7,0,3.4,0,5.1,0c0.1,1.9,0.8,4,2.2,5.4s3.5,2.1,5.5,2.3v5.2c-1.8-0.1-3.8-0.5-5.4-1.3
	c-0.8-0.3-1.5-0.8-2.1-1.2c0,3.8,0,7.6,0,11.4c-0.1,1.8-0.7,3.6-1.7,5.1c-1.7,2.5-4.7,4.1-7.7,4.2c-1.8,0.1-3.7-0.4-5.2-1.4
	c-2.6-1.7-4.5-4.6-4.8-7.6c0-0.7,0-1.3,0-1.9C2.7,18.4,4,16,5.8,14.4c2.1-1.8,5.1-2.7,8-2.2c0,1.9-0.1,3.8-0.1,5.7
	c-1.3-0.4-2.8-0.3-3.9,0.5C9,18.9,8.3,19.8,8,20.7c-0.3,0.7-0.2,1.4-0.2,2c0.3,2.1,2.3,3.9,4.6,3.7c1.5,0,2.8-0.9,3.6-2
	c0.3-0.4,0.5-0.9,0.5-1.4c0.1-2.3,0.1-4.7,0.1-6.9C16.7,10.9,16.7,5.7,16.7,0.5L16.7,0.5z"/>
<line class="st1" x1="45.1" y1="-23.8" x2="44.9" y2="-23.8"/>
</svg>
