<svg width="582" height="582" viewBox="0 0 582 582" fill="none" xmlns="http://www.w3.org/2000/svg">
<rect width="582" height="582" fill="#E4E6E7"/>
<path d="M292.253 164C340.769 196.543 382.659 234.515 410.57 285.545C422.231 306.865 428.596 329.655 427.059 354.123C425.849 373.399 416.286 388.37 400.376 398.816C389.52 405.945 377.353 411.145 365.772 417.207C365.478 416.683 365.181 416.161 364.886 415.636C370.61 411.039 377.018 407.053 381.924 401.729C395.875 386.589 394.944 368.53 390.549 350.285C385.117 327.743 372.331 309.001 357.769 291.337C340.336 270.19 319.565 252.584 296.804 237.236C294.826 235.903 290.71 235.064 289.103 236.155C254.718 259.526 223.599 286.161 203.22 322.925C195.255 337.295 190.384 352.579 189.906 369.208C189.373 387.715 197.929 401.113 212.609 411.514C214.401 412.783 216.323 413.877 217.82 416.151C216.179 415.728 214.486 415.438 212.904 414.859C196.06 408.686 180.793 400.167 169.263 386.171C153.81 367.411 153.858 345.891 158.254 323.833C164.43 292.829 181.349 267.177 201.034 243.048C226.62 211.68 258.522 187.332 292.253 164Z" fill="#AEB4B7"/>
<path d="M291.477 384.797C278.369 376.384 267.654 366.579 260.162 353.787C257.714 349.608 255.809 344.902 254.755 340.199C252.091 328.33 256.141 320.586 267.591 316.211C282.765 310.414 298.366 309.917 313.74 315.42C327.847 320.47 332.423 330.438 327.266 344.831C320.888 362.633 306.927 374.081 291.477 384.797Z" fill="#AEB4B7"/>
</svg>
